<svg version="1.1" id="Layer_1" xmlns="http://www.w3.org/2000/svg" xmlns:xlink="http://www.w3.org/1999/xlink" x="0px" y="0px"
 width="691.331px" height="648.28px" viewBox="0 0 691.331 648.28" enable-background="new 0 0 691.331 648.28"
 xml:space="preserve"><g><path fill="#ffffff" d="M186.5,593.28c-72.51,0-131.5-58.99-131.5-131.5c0-68.381,65.741-126.786,132.531-132.977
c-12.82-15.189-25.883-31.735-34.263-49.956C71.678,298.738,0,374.149,0,461.78c0,102.84,83.66,186.5,186.5,186.5
c53,0,111.041-31.867,145.03-67.477c-11.56-16.4-19.624-36.945-26.333-55.666C281.358,558.827,230.81,593.28,186.5,593.28z"/><path fill="#ffffff" d="M538.531,279.803c-0.35,0.76-0.709,1.52-1.069,2.27c-0.649,1.361-1.32,2.721-2,4.07
c-0.14,0.301-0.3,0.6-0.45,0.9c-0.25,0.5-0.51,0.99-0.76,1.49c-0.58,1.119-1.17,2.24-1.78,3.35c-0.44,0.83-0.89,1.65-1.351,2.471
c-0.039,0.08-0.079,0.16-0.129,0.229c-0.58,1.051-1.17,2.092-1.771,3.131c-6.62,11.471-15.533,21.354-24.023,31.424
c66.859,6.131,131.133,64.213,131.133,132.643c0,72.51-58.99,131.5-131.5,131.5c-72.511,0-131.5-58.99-131.5-131.5
c0-49.48,27.459-92.66,67.949-115.1l-0.02-0.041c27.199-16.209,50-39.35,65.92-66.93c0.84-1.449,1.65-2.91,2.439-4.369
c6.45-11.881,11.471-24.182,15.11-36.691c23.479-80.559-9.989-169.919-85.819-213.699C349.85-26.47,235.57,4.16,184.15,93.209
c-24.91,43.15-31.53,93.4-18.63,141.52c3.83,14.301,9.24,27.9,16.1,40.611c16.211,30.059,40.471,55.129,70.791,72.639l-0.021,0.031
c16.42,9.539,34.388,26.557,45.328,42.006c6.709-18.719,15.92-36.479,27.479-52.879c-12.18-12.76-29.957-27.828-45.308-36.748
l0.021-0.039c-30.42-17.57-52.17-45.92-61.271-79.85c-9.091-33.932-4.42-69.371,13.14-99.791c17.561-30.42,45.92-52.18,79.85-61.27
c33.92-9.09,69.361-4.42,99.781,13.14c59.199,34.181,81.779,107.749,53.799,168.671c-1.689,3.699-3.58,7.359-5.66,10.959
c-11.229,19.449-27.289,35.77-46.439,47.17l0.02,0.041c-27.639,15.67-50.909,38.199-67.459,65.25
c-17.351,28.299-27.34,61.559-27.34,97.109c0,35.549,9.989,68.809,27.34,97.109c32.789,53.57,91.869,89.391,159.16,89.391
c102.84,0,186.5-83.66,186.5-186.5C691.331,374.14,620.141,299.684,538.531,279.803z"/></g></svg>
